name C:\Users\u0101727\Documents\MyRepositories\upper-imu-dc\Results\main_tracking\Case_47\FLX03_orientations_groundFrame.mot
datacolumns 13
datarows 43
range 0.51000000 0.93000000
endheader 
time	radius_imu_[0][0]	radius_imu_[0][1]	radius_imu_[0][2]	radius_imu_[1][0]	radius_imu_[1][1]	radius_imu_[1][2]	radius_imu_[2][0]	radius_imu_[2][1]	radius_imu_[2][2]	radius_imu_x	radius_imu_y	radius_imu_z	
          0.51000000	          0.56138888	         -0.00243961	          0.82754853	         -0.23328648	          0.95897326	          0.16108294	         -0.79398989	         -0.28348605	          0.53778780	         -0.29102446	          0.97472677	          0.00434564	
          0.52000000	          0.56364602	         -0.00220633	          0.82601349	         -0.23323738	          0.95887878	          0.16171519	         -0.79240361	         -0.28380735	          0.53995361	         -0.29099646	          0.97199793	          0.00391438	
          0.53000000	          0.56587562	         -0.00199888	          0.82448820	         -0.23316411	          0.95878877	          0.16235331	         -0.79083455	         -0.28411283	          0.54208912	         -0.29099398	          0.96929717	          0.00353235	
          0.54000000	          0.56813244	         -0.00180913	          0.82293515	         -0.23304779	          0.95870773	          0.16299758	         -0.78924917	         -0.28438743	          0.54425135	         -0.29098840	          0.96655814	          0.00318433	
          0.55000000	          0.57046794	         -0.00162851	          0.82131826	         -0.23287658	          0.95863797	          0.16365127	         -0.78761338	         -0.28462359	          0.54649298	         -0.29095875	          0.96371802	          0.00285468	
          0.56000000	          0.57293139	         -0.00144926	          0.81960205	         -0.23264152	          0.95858068	          0.16431982	         -0.78589284	         -0.28481745	          0.54886380	         -0.29088952	          0.96071610	          0.00252955	
          0.57000000	          0.57556404	         -0.00126597	          0.81775573	         -0.23233595	          0.95853627	          0.16500978	         -0.78405742	         -0.28496775	          0.55140488	         -0.29077170	          0.95750090	          0.00219952	
          0.58000000	          0.57839560	         -0.00107564	          0.81575570	         -0.23195592	          0.95850445	          0.16572767	         -0.78208374	         -0.28507552	          0.55414526	         -0.29060245	          0.95403454	          0.00185970	
          0.59000000	          0.58144181	         -0.00087758	          0.81358752	         -0.23150065	          0.95848430	          0.16647909	         -0.77995697	         -0.28514394	          0.55709969	         -0.29038468	          0.95029578	          0.00150932	
          0.60000000	          0.58470288	         -0.00067341	          0.81124724	         -0.23097278	          0.95847426	          0.16726824	         -0.77767224	         -0.28517825	          0.56026712	         -0.29012679	          0.94628209	          0.00115171	
          0.61000000	          0.58816290	         -0.00046732	          0.80874234	         -0.23037816	          0.95847224	          0.16809779	         -0.77523564	         -0.28518546	          0.56363016	         -0.28984253	          0.94201068	          0.00079454	
          0.62000000	          0.59179080	         -0.00026623	          0.80609155	         -0.22972529	          0.95847575	          0.16896901	         -0.77266419	         -0.28517391	          0.56715597	         -0.28955053	          0.93751764	          0.00044988	
          0.63000000	          0.59554373	         -0.00007951	          0.80332289	         -0.22902430	          0.95848210	          0.16988212	         -0.76998411	         -0.28515270	          0.57079979	         -0.28927299	          0.93285399	          0.00013351	
          0.64000000	          0.59937312	          0.00008204	          0.80046977	         -0.22828607	          0.95848848	          0.17083706	         -0.76722704	         -0.28513124	          0.57451096	         -0.28903378	          0.92807858	         -0.00013687	
          0.65000000	          0.60323054	          0.00020681	          0.79756685	         -0.22752120	          0.95849204	          0.17183452	         -0.76442594	         -0.28511920	          0.57823872	         -0.28885736	          0.92325086	         -0.00034283	
          0.66000000	          0.60707085	          0.00028224	          0.79464766	         -0.22673941	          0.95848983	          0.17287707	         -0.76161291	         -0.28512657	          0.58193523	         -0.28876903	          0.91842697	         -0.00046493	
          0.67000000	          0.61085239	          0.00029413	          0.79174445	         -0.22594904	          0.95847877	          0.17396976	         -0.75881908	         -0.28516374	          0.58555551	         -0.28879603	          0.91365950	         -0.00048151	
          0.68000000	          0.61453539	          0.00022591	          0.78888922	         -0.22515696	          0.95845567	          0.17512015	         -0.75607579	         -0.28524143	          0.58905579	         -0.28896832	          0.90899939	         -0.00036761	
          0.69000000	          0.61808057	          0.00005857	          0.78611475	         -0.22436858	          0.95841731	          0.17633777	         -0.75341565	         -0.28537040	          0.59239226	         -0.28931838	          0.90449763	         -0.00009476	
          0.70000000	          0.62144842	         -0.00022882	          0.78345505	         -0.22358802	          0.95836048	          0.17763330	         -0.75087300	         -0.28556110	          0.59552044	         -0.28988033	          0.90020617	          0.00036820	
          0.71000000	          0.62459877	         -0.00065843	          0.78094555	         -0.22281842	          0.95828212	          0.17901769	         -0.74848402	         -0.28582328	          0.59839512	         -0.29068874	          0.89617823	          0.00105416	
          0.72000000	          0.62749073	         -0.00125284	          0.77862303	         -0.22206227	          0.95817933	          0.18050129	         -0.74628663	         -0.28616568	          0.60097044	         -0.29177759	          0.89246841	          0.00199658	
          0.73000000	          0.63008320	         -0.00203415	          0.77652497	         -0.22132168	          0.95804948	          0.18209316	         -0.74431974	         -0.28659564	          0.60320068	         -0.29317905	          0.88913175	          0.00322837	
          0.74000000	          0.63233605	         -0.00302307	          0.77468831	         -0.22059853	          0.95789020	          0.18380060	         -0.74262198	         -0.28711884	          0.60504162	         -0.29492266	          0.88622203	          0.00478077	
          0.75000000	          0.63421111	         -0.00423854	          0.77314831	         -0.21989452	          0.95769946	          0.18562906	         -0.74123051	         -0.28773909	          0.60645161	         -0.29703497	          0.88379026	          0.00668306	
          0.76000000	          0.63567307	         -0.00569756	          0.77193736	         -0.21921090	          0.95747558	          0.18758224	         -0.74017993	         -0.28845806	          0.60739248	         -0.29953973	          0.88188314	          0.00896279	
          0.77000000	          0.63669154	         -0.00741509	          0.77108294	         -0.21854788	          0.95721732	          0.18966239	         -0.73950031	         -0.28927498	          0.60783162	         -0.30245767	          0.88054018	          0.01164576	
          0.78000000	          0.63724527	         -0.00940324	          0.77060369	         -0.21790383	          0.95692398	          0.19187083	         -0.73921336	         -0.29018627	          0.60774628	         -0.30580548	          0.87978784	          0.01475500	
          0.79000000	          0.63732820	         -0.01166993	          0.77050411	         -0.21727446	          0.95659543	          0.19420862	         -0.73932711	         -0.29118549	          0.60712967	         -0.30959406	          0.87963161	          0.01830866	
          0.80000000	          0.63695470	         -0.01421776	          0.77077011	         -0.21665233	          0.95623203	          0.19667758	         -0.73983138	         -0.29226385	          0.60599618	         -0.31382710	          0.88004902	          0.02231775	
          0.81000000	          0.63616121	         -0.01704400	          0.77136789	         -0.21602693	          0.95583437	          0.19928129	         -0.74069649	         -0.29341126	          0.60438278	         -0.31850131	          0.88098781	          0.02678554	
          0.82000000	          0.63500350	         -0.02014191	          0.77224663	         -0.21538503	          0.95540295	          0.20202598	         -0.74187589	         -0.29461757	          0.60234595	         -0.32360813	          0.88236979	          0.03170873	
          0.83000000	          0.63355160	         -0.02350270	          0.77334339	         -0.21471137	          0.95493790	          0.20492106	         -0.74331111	         -0.29587368	          0.59995613	         -0.32913626	          0.88409791	          0.03707974	
          0.84000000	          0.63188433	         -0.02711734	          0.77458817	         -0.21398918	          0.95443872	          0.20797923	         -0.74493679	         -0.29717230	          0.59729206	         -0.33507354	          0.88606369	          0.04288873	
          0.85000000	          0.63008481	         -0.03097775	          0.77590818	         -0.21320067	          0.95390420	          0.21121611	         -0.74668508	         -0.29850821	          0.59443608	         -0.34140798	          0.88815345	          0.04912486	
          0.86000000	          0.62823686	         -0.03507723	          0.77723100	         -0.21232750	          0.95333239	          0.21464947	         -0.74848880	         -0.29987823	          0.59147068	         -0.34812760	          0.89025306	          0.05577649	
          0.87000000	          0.62642206	         -0.03941046	          0.77848713	         -0.21135126	          0.95272063	          0.21829808	         -0.75028397	         -0.30128097	          0.58847577	         -0.35521974	          0.89225187	          0.06283078	
          0.88000000	          0.62471672	         -0.04397330	          0.77961232	         -0.21025404	          0.95206567	          0.22218054	         -0.75201214	         -0.30271654	          0.58552578	         -0.36267048	          0.89404654	          0.07027328	
          0.89000000	          0.62318770	         -0.04876313	          0.78055061	         -0.20901911	          0.95136373	          0.22631410	         -0.75362332	         -0.30418616	          0.58268574	         -0.37046500	          0.89554618	          0.07808879	
          0.90000000	          0.62188760	         -0.05377940	          0.78125770	         -0.20763159	          0.95061052	          0.23071360	         -0.75507942	         -0.30569170	          0.58000659	         -0.37858900	          0.89667815	          0.08626307	
          0.91000000	          0.62085221	         -0.05902346	          0.78170248	         -0.20607914	          0.94980143	          0.23539039	         -0.75635569	         -0.30723522	          0.57752281	         -0.38702915	          0.89739103	          0.09478358	
          0.92000000	          0.62010246	         -0.06449697	          0.78186513	         -0.20435247	          0.94893155	          0.24035179	         -0.75743845	         -0.30881880	          0.57525468	         -0.39577178	          0.89765186	          0.10363753	
          0.93000000	          0.61964845	         -0.07020032	          0.78173379	         -0.20244558	          0.94799572	          0.24560112	         -0.75832156	         -0.31044490	          0.57321233	         -0.40480143	          0.89744122	          0.11280958	
